<svg width="238" height="66" viewBox="0 0 238 66" fill="none" xmlns="http://www.w3.org/2000/svg">
<rect x="1" y="1" width="236" height="64" rx="32" fill="#192D40"/>
<rect x="1" y="1" width="236" height="64" rx="32" stroke="white" stroke-width="2"/>
<path d="M58.9873 33.1C58.9873 34.284 59.2513 35.324 59.7793 36.22C60.3233 37.116 61.0273 37.812 61.8913 38.308C62.7713 38.788 63.7233 39.028 64.7473 39.028C65.5473 39.028 66.2673 38.924 66.9073 38.716C67.5473 38.508 68.1233 38.228 68.6353 37.876C69.1633 37.508 69.6193 37.1 70.0033 36.652V40.012C69.2993 40.588 68.5393 41.028 67.7233 41.332C66.9073 41.636 65.8833 41.788 64.6513 41.788C63.4193 41.788 62.2673 41.58 61.1953 41.164C60.1393 40.748 59.2193 40.148 58.4353 39.364C57.6513 38.58 57.0353 37.66 56.5873 36.604C56.1553 35.532 55.9393 34.364 55.9393 33.1C55.9393 31.836 56.1553 30.676 56.5873 29.62C57.0353 28.548 57.6513 27.62 58.4353 26.836C59.2193 26.052 60.1393 25.452 61.1953 25.036C62.2673 24.62 63.4193 24.412 64.6513 24.412C65.8833 24.412 66.9073 24.564 67.7233 24.868C68.5393 25.172 69.2993 25.612 70.0033 26.188V29.548C69.6193 29.1 69.1633 28.7 68.6353 28.348C68.1233 27.98 67.5473 27.692 66.9073 27.484C66.2673 27.276 65.5473 27.172 64.7473 27.172C63.7233 27.172 62.7713 27.42 61.8913 27.916C61.0273 28.396 60.3233 29.084 59.7793 29.98C59.2513 30.86 58.9873 31.9 58.9873 33.1ZM75.9411 37.18C75.9411 37.964 76.1091 38.572 76.4451 39.004C76.7811 39.436 77.2931 39.652 77.9811 39.652C78.4771 39.652 78.9091 39.556 79.2771 39.364C79.6451 39.156 79.9331 38.868 80.1411 38.5C80.3491 38.116 80.4531 37.676 80.4531 37.18V30.46H83.0451V41.5H80.4531V39.796C80.1011 40.436 79.6451 40.924 79.0851 41.26C78.5411 41.58 77.8851 41.74 77.1171 41.74C75.8851 41.74 74.9331 41.356 74.2611 40.588C73.6051 39.82 73.2771 38.78 73.2771 37.468V30.46H75.9411V37.18ZM88.9232 30.46V41.5H86.3552V30.46H88.9232ZM92.2112 33.22C91.9712 33.028 91.7472 32.884 91.5392 32.788C91.3312 32.692 91.0672 32.644 90.7472 32.644C90.3152 32.644 89.9632 32.756 89.6912 32.98C89.4192 33.204 89.2192 33.516 89.0912 33.916C88.9792 34.3 88.9232 34.756 88.9232 35.284L88.0592 34.78C88.0592 33.9 88.2192 33.124 88.5392 32.452C88.8752 31.764 89.2992 31.22 89.8112 30.82C90.3392 30.42 90.8832 30.22 91.4432 30.22C91.8432 30.22 92.2192 30.284 92.5712 30.412C92.9232 30.524 93.2192 30.732 93.4592 31.036L92.2112 33.22ZM97.806 30.46V41.5H95.238V30.46H97.806ZM101.094 33.22C100.854 33.028 100.63 32.884 100.422 32.788C100.214 32.692 99.95 32.644 99.63 32.644C99.198 32.644 98.846 32.756 98.574 32.98C98.302 33.204 98.102 33.516 97.974 33.916C97.862 34.3 97.806 34.756 97.806 35.284L96.942 34.78C96.942 33.9 97.102 33.124 97.422 32.452C97.758 31.764 98.182 31.22 98.694 30.82C99.222 30.42 99.766 30.22 100.326 30.22C100.726 30.22 101.102 30.284 101.454 30.412C101.806 30.524 102.102 30.732 102.342 31.036L101.094 33.22ZM104.385 30.46H106.929V41.5H104.385V30.46ZM109.617 24.82L105.297 28.42L103.833 27.58L107.433 23.74L109.617 24.82ZM112.224 35.98C112.224 36.684 112.376 37.3 112.68 37.828C112.984 38.34 113.392 38.748 113.904 39.052C114.432 39.356 115.016 39.508 115.656 39.508C116.184 39.508 116.688 39.428 117.168 39.268C117.648 39.108 118.072 38.884 118.44 38.596C118.808 38.308 119.08 37.988 119.256 37.636V40.492C118.872 40.876 118.352 41.18 117.696 41.404C117.04 41.628 116.32 41.74 115.536 41.74C114.4 41.74 113.376 41.5 112.464 41.02C111.568 40.524 110.856 39.844 110.328 38.98C109.816 38.1 109.56 37.1 109.56 35.98C109.56 34.844 109.816 33.844 110.328 32.98C110.856 32.116 111.568 31.444 112.464 30.964C113.376 30.468 114.4 30.22 115.536 30.22C116.32 30.22 117.04 30.332 117.696 30.556C118.352 30.78 118.872 31.084 119.256 31.468V34.324C119.08 33.956 118.8 33.636 118.416 33.364C118.048 33.076 117.624 32.852 117.144 32.692C116.664 32.532 116.168 32.452 115.656 32.452C115.016 32.452 114.432 32.604 113.904 32.908C113.392 33.212 112.984 33.628 112.68 34.156C112.376 34.684 112.224 35.292 112.224 35.98ZM124.785 37.18C124.785 37.964 124.953 38.572 125.289 39.004C125.625 39.436 126.137 39.652 126.825 39.652C127.321 39.652 127.753 39.556 128.121 39.364C128.489 39.156 128.777 38.868 128.985 38.5C129.193 38.116 129.297 37.676 129.297 37.18V30.46H131.889V41.5H129.297V39.796C128.945 40.436 128.489 40.924 127.929 41.26C127.385 41.58 126.729 41.74 125.961 41.74C124.729 41.74 123.777 41.356 123.105 40.588C122.449 39.82 122.121 38.78 122.121 37.468V30.46H124.785V37.18ZM135.199 22.78H137.791V41.5H135.199V22.78ZM140.265 35.98C140.265 34.844 140.521 33.844 141.033 32.98C141.561 32.116 142.273 31.444 143.169 30.964C144.065 30.468 145.081 30.22 146.217 30.22C147.353 30.22 148.361 30.468 149.241 30.964C150.137 31.444 150.849 32.116 151.377 32.98C151.905 33.844 152.169 34.844 152.169 35.98C152.169 37.1 151.905 38.1 151.377 38.98C150.849 39.844 150.137 40.524 149.241 41.02C148.361 41.5 147.353 41.74 146.217 41.74C145.081 41.74 144.065 41.5 143.169 41.02C142.273 40.524 141.561 39.844 141.033 38.98C140.521 38.1 140.265 37.1 140.265 35.98ZM142.929 35.98C142.929 36.668 143.073 37.276 143.361 37.804C143.649 38.316 144.041 38.724 144.537 39.028C145.033 39.316 145.593 39.46 146.217 39.46C146.825 39.46 147.377 39.316 147.873 39.028C148.385 38.724 148.785 38.316 149.073 37.804C149.361 37.276 149.505 36.668 149.505 35.98C149.505 35.292 149.361 34.684 149.073 34.156C148.785 33.628 148.385 33.22 147.873 32.932C147.377 32.644 146.825 32.5 146.217 32.5C145.593 32.5 145.033 32.644 144.537 32.932C144.041 33.22 143.649 33.628 143.361 34.156C143.073 34.684 142.929 35.292 142.929 35.98Z" fill="white"/>
<path d="M172.063 23.625H170.5H166.333C164.608 23.625 163.208 25.0241 163.208 26.75V39.25C163.208 40.9759 164.608 42.375 166.333 42.375H170.5M172.063 23.625L177.792 29.4844M172.063 23.625V28.4427C172.063 29.018 172.529 29.4844 173.104 29.4844H177.792M177.792 29.4844V32.8047" stroke="white" stroke-width="2" stroke-linecap="round" stroke-linejoin="round"/>
<path d="M176.229 36.125V42.375M176.229 42.375L173.625 39.7708M176.229 42.375L178.833 39.7708" stroke="white" stroke-width="2" stroke-linecap="round" stroke-linejoin="round"/>
</svg>
