<svg width="157" height="17" viewBox="0 0 157 17" fill="none" xmlns="http://www.w3.org/2000/svg">
<path d="M8.22 10.68V8.68H14.96C14.9867 9.70667 14.8533 10.68 14.56 11.6C14.2667 12.5067 13.8267 13.3133 13.24 14.02C12.6533 14.7267 11.92 15.2867 11.04 15.7C10.1733 16.1 9.18667 16.3 8.08 16.3C7.02667 16.3 6.05333 16.1267 5.16 15.78C4.26667 15.42 3.48667 14.9133 2.82 14.26C2.16667 13.6067 1.66 12.8333 1.3 11.94C0.94 11.0467 0.76 10.0667 0.76 9C0.76 7.93333 0.94 6.96 1.3 6.08C1.67333 5.18667 2.18667 4.42 2.84 3.78C3.50667 3.12667 4.28667 2.62667 5.18 2.28C6.08667 1.93333 7.06667 1.76 8.12 1.76C9.04 1.76 9.87333 1.88667 10.62 2.14C11.3667 2.38 12.0333 2.73333 12.62 3.2C13.22 3.65333 13.7267 4.20667 14.14 4.86L12.22 6.14C11.8333 5.47333 11.2933 4.94 10.6 4.54C9.92 4.14 9.09333 3.94 8.12 3.94C7.21333 3.94 6.39333 4.15333 5.66 4.58C4.92667 4.99333 4.34 5.58 3.9 6.34C3.46 7.08667 3.24 7.97333 3.24 9C3.24 10.0133 3.45333 10.9067 3.88 11.68C4.32 12.44 4.90667 13.0333 5.64 13.46C6.37333 13.8867 7.2 14.1 8.12 14.1C8.74667 14.1 9.30667 14.0133 9.8 13.84C10.2933 13.6667 10.72 13.42 11.08 13.1C11.44 12.78 11.74 12.4133 11.98 12C12.22 11.5867 12.4 11.1467 12.52 10.68H8.22ZM19.4203 12.4C19.4203 13.0533 19.5603 13.56 19.8403 13.92C20.1203 14.28 20.547 14.46 21.1203 14.46C21.5336 14.46 21.8936 14.38 22.2003 14.22C22.507 14.0467 22.747 13.8067 22.9203 13.5C23.0936 13.18 23.1803 12.8133 23.1803 12.4V6.8H25.3403V16H23.1803V14.58C22.887 15.1133 22.507 15.52 22.0403 15.8C21.587 16.0667 21.0403 16.2 20.4003 16.2C19.3736 16.2 18.5803 15.88 18.0203 15.24C17.4736 14.6 17.2003 13.7333 17.2003 12.64V6.8H19.4203V12.4ZM28.0188 3.14C28.0188 2.76667 28.1521 2.45333 28.4188 2.2C28.6988 1.94667 29.0188 1.82 29.3788 1.82C29.7654 1.82 30.0854 1.94667 30.3388 2.2C30.6054 2.45333 30.7388 2.76667 30.7388 3.14C30.7388 3.5 30.6054 3.81333 30.3388 4.08C30.0854 4.33333 29.7654 4.46 29.3788 4.46C29.0188 4.46 28.6988 4.33333 28.4188 4.08C28.1521 3.81333 28.0188 3.5 28.0188 3.14ZM28.3188 6.8H30.4388V16H28.3188V6.8ZM33.4113 0.399999H35.5713V16H33.4113V0.399999ZM40.4931 0.399999V16H38.3331V0.399999H40.4931ZM44.2531 10.4C44.2531 9.72 44.1131 9.20667 43.8331 8.86C43.5665 8.51333 43.1331 8.34 42.5331 8.34C42.1331 8.34 41.7798 8.42667 41.4731 8.6C41.1665 8.77333 40.9265 9.01333 40.7531 9.32C40.5798 9.62667 40.4931 9.98667 40.4931 10.4H39.9731C39.9731 9.66667 40.1065 9.01333 40.3731 8.44C40.6398 7.86667 41.0131 7.40667 41.4931 7.06C41.9865 6.71333 42.5798 6.54 43.2731 6.54C43.9531 6.54 44.5265 6.67333 44.9931 6.94C45.4731 7.20667 45.8331 7.60667 46.0731 8.14C46.3131 8.66 46.4331 9.31333 46.4331 10.1V16H44.2531V10.4ZM53.173 16.2C52.2396 16.2 51.413 16 50.693 15.6C49.9863 15.2 49.4396 14.64 49.053 13.92C48.6663 13.2 48.473 12.36 48.473 11.4C48.473 10.4267 48.6663 9.58 49.053 8.86C49.453 8.14 50.013 7.58667 50.733 7.2C51.453 6.8 52.2996 6.6 53.273 6.6C54.2463 6.6 55.073 6.78667 55.753 7.16C56.433 7.53333 56.953 8.07333 57.313 8.78C57.6863 9.47333 57.873 10.3133 57.873 11.3C57.873 11.4067 57.8663 11.52 57.853 11.64C57.853 11.76 57.8463 11.8467 57.833 11.9H49.753V10.42H55.993L55.333 11.34C55.373 11.26 55.413 11.1533 55.453 11.02C55.5063 10.8733 55.533 10.7533 55.533 10.66C55.533 10.1667 55.433 9.74 55.233 9.38C55.0463 9.02 54.7796 8.74 54.433 8.54C54.0996 8.34 53.7063 8.24 53.253 8.24C52.7063 8.24 52.2396 8.36 51.853 8.6C51.4663 8.84 51.173 9.18667 50.973 9.64C50.773 10.0933 50.6663 10.6533 50.653 11.32C50.653 11.9867 50.753 12.5533 50.953 13.02C51.153 13.4733 51.4463 13.82 51.833 14.06C52.233 14.3 52.713 14.42 53.273 14.42C53.8596 14.42 54.373 14.3 54.813 14.06C55.253 13.82 55.6196 13.4533 55.913 12.96L57.773 13.72C57.293 14.5467 56.673 15.1667 55.913 15.58C55.153 15.9933 54.2396 16.2 53.173 16.2ZM62.0747 6.8V16H59.9347V6.8H62.0747ZM64.8147 9.1C64.6147 8.94 64.428 8.82 64.2547 8.74C64.0814 8.66 63.8614 8.62 63.5947 8.62C63.2347 8.62 62.9414 8.71333 62.7147 8.9C62.488 9.08667 62.3214 9.34667 62.2147 9.68C62.1214 10 62.0747 10.38 62.0747 10.82L61.3547 10.4C61.3547 9.66667 61.488 9.02 61.7547 8.46C62.0347 7.88667 62.388 7.43333 62.8147 7.1C63.2547 6.76667 63.708 6.6 64.1747 6.6C64.508 6.6 64.8214 6.65333 65.1147 6.76C65.408 6.85333 65.6547 7.02667 65.8547 7.28L64.8147 9.1ZM80.497 10.16V16H78.337V10.4C78.337 9.70667 78.2104 9.19333 77.957 8.86C77.717 8.51333 77.3304 8.34 76.797 8.34C76.437 8.34 76.117 8.42 75.837 8.58C75.5704 8.74 75.357 8.97333 75.197 9.28C75.0504 9.58667 74.977 9.96 74.977 10.4V16H72.817V10.4C72.817 9.70667 72.6904 9.19333 72.437 8.86C72.197 8.51333 71.8104 8.34 71.277 8.34C70.9037 8.34 70.577 8.42 70.297 8.58C70.0304 8.74 69.8237 8.97333 69.677 9.28C69.5304 9.58667 69.457 9.96 69.457 10.4V16H67.337V6.8H69.457V8.14C69.7237 7.63333 70.0704 7.25333 70.497 7C70.937 6.73333 71.4504 6.6 72.037 6.6C72.717 6.6 73.277 6.74 73.717 7.02C74.1704 7.3 74.497 7.70667 74.697 8.24C75.017 7.70667 75.417 7.3 75.897 7.02C76.3904 6.74 76.9504 6.6 77.577 6.6C78.2304 6.6 78.7704 6.74 79.197 7.02C79.637 7.28667 79.9637 7.68667 80.177 8.22C80.3904 8.75333 80.497 9.4 80.497 10.16ZM87.255 16.2C86.3217 16.2 85.495 16 84.775 15.6C84.0683 15.2 83.5217 14.64 83.135 13.92C82.7483 13.2 82.555 12.36 82.555 11.4C82.555 10.4267 82.7483 9.58 83.135 8.86C83.535 8.14 84.095 7.58667 84.815 7.2C85.535 6.8 86.3817 6.6 87.355 6.6C88.3283 6.6 89.155 6.78667 89.835 7.16C90.515 7.53333 91.035 8.07333 91.395 8.78C91.7683 9.47333 91.955 10.3133 91.955 11.3C91.955 11.4067 91.9483 11.52 91.935 11.64C91.935 11.76 91.9283 11.8467 91.915 11.9H83.835V10.42H90.075L89.415 11.34C89.455 11.26 89.495 11.1533 89.535 11.02C89.5883 10.8733 89.615 10.7533 89.615 10.66C89.615 10.1667 89.515 9.74 89.315 9.38C89.1283 9.02 88.8617 8.74 88.515 8.54C88.1817 8.34 87.7883 8.24 87.335 8.24C86.7883 8.24 86.3217 8.36 85.935 8.6C85.5483 8.84 85.255 9.18667 85.055 9.64C84.855 10.0933 84.7483 10.6533 84.735 11.32C84.735 11.9867 84.835 12.5533 85.035 13.02C85.235 13.4733 85.5283 13.82 85.915 14.06C86.315 14.3 86.795 14.42 87.355 14.42C87.9417 14.42 88.455 14.3 88.895 14.06C89.335 13.82 89.7017 13.4533 89.995 12.96L91.855 13.72C91.375 14.5467 90.755 15.1667 89.995 15.58C89.235 15.9933 88.3217 16.2 87.255 16.2ZM101.933 9C101.933 9.98667 102.153 10.8533 102.593 11.6C103.046 12.3467 103.633 12.9267 104.353 13.34C105.086 13.74 105.879 13.94 106.733 13.94C107.399 13.94 107.999 13.8533 108.533 13.68C109.066 13.5067 109.546 13.2733 109.973 12.98C110.413 12.6733 110.793 12.3333 111.113 11.96V14.76C110.526 15.24 109.893 15.6067 109.213 15.86C108.533 16.1133 107.679 16.24 106.653 16.24C105.626 16.24 104.666 16.0667 103.773 15.72C102.893 15.3733 102.126 14.8733 101.473 14.22C100.819 13.5667 100.306 12.8 99.9328 11.92C99.5728 11.0267 99.3928 10.0533 99.3928 9C99.3928 7.94667 99.5728 6.98 99.9328 6.1C100.306 5.20667 100.819 4.43333 101.473 3.78C102.126 3.12667 102.893 2.62667 103.773 2.28C104.666 1.93333 105.626 1.76 106.653 1.76C107.679 1.76 108.533 1.88667 109.213 2.14C109.893 2.39333 110.526 2.76 111.113 3.24V6.04C110.793 5.66667 110.413 5.33333 109.973 5.04C109.546 4.73333 109.066 4.49333 108.533 4.32C107.999 4.14667 107.399 4.06 106.733 4.06C105.879 4.06 105.086 4.26667 104.353 4.68C103.633 5.08 103.046 5.65333 102.593 6.4C102.153 7.13333 101.933 8 101.933 9ZM115.201 13.14C115.201 13.4467 115.274 13.7133 115.421 13.94C115.568 14.1533 115.768 14.3133 116.021 14.42C116.288 14.5267 116.588 14.58 116.921 14.58C117.348 14.58 117.734 14.4933 118.081 14.32C118.441 14.1467 118.728 13.8933 118.941 13.56C119.168 13.2133 119.281 12.8133 119.281 12.36L119.601 13.56C119.601 14.1467 119.428 14.64 119.081 15.04C118.748 15.4267 118.321 15.72 117.801 15.92C117.294 16.1067 116.774 16.2 116.241 16.2C115.668 16.2 115.134 16.0867 114.641 15.86C114.148 15.6333 113.754 15.3 113.461 14.86C113.168 14.42 113.021 13.8867 113.021 13.26C113.021 12.3667 113.334 11.66 113.961 11.14C114.588 10.6067 115.474 10.34 116.621 10.34C117.234 10.34 117.761 10.4067 118.201 10.54C118.654 10.6733 119.028 10.8333 119.321 11.02C119.614 11.1933 119.821 11.3533 119.941 11.5V12.6C119.528 12.3067 119.088 12.0933 118.621 11.96C118.154 11.8267 117.661 11.76 117.141 11.76C116.688 11.76 116.321 11.82 116.041 11.94C115.761 12.0467 115.548 12.2 115.401 12.4C115.268 12.6 115.201 12.8467 115.201 13.14ZM114.521 9.2L113.641 7.68C114.054 7.42667 114.588 7.18 115.241 6.94C115.908 6.7 116.668 6.58 117.521 6.58C118.281 6.58 118.948 6.69333 119.521 6.92C120.108 7.14667 120.568 7.47333 120.901 7.9C121.234 8.31333 121.401 8.82667 121.401 9.44V16H119.281V9.86C119.281 9.56667 119.228 9.32667 119.121 9.14C119.028 8.95333 118.894 8.8 118.721 8.68C118.548 8.56 118.341 8.47333 118.101 8.42C117.861 8.36667 117.601 8.34 117.321 8.34C116.894 8.34 116.488 8.39333 116.101 8.5C115.728 8.59333 115.401 8.71333 115.121 8.86C114.854 8.99333 114.654 9.10667 114.521 9.2ZM126.059 6.8V16H123.919V6.8H126.059ZM128.799 9.1C128.599 8.94 128.412 8.82 128.239 8.74C128.066 8.66 127.846 8.62 127.579 8.62C127.219 8.62 126.926 8.71333 126.699 8.9C126.472 9.08667 126.306 9.34667 126.199 9.68C126.106 10 126.059 10.38 126.059 10.82L125.339 10.4C125.339 9.66667 125.472 9.02 125.739 8.46C126.019 7.88667 126.372 7.43333 126.799 7.1C127.239 6.76667 127.692 6.6 128.159 6.6C128.492 6.6 128.806 6.65333 129.099 6.76C129.392 6.85333 129.639 7.02667 129.839 7.28L128.799 9.1ZM144.481 10.16V16H142.321V10.4C142.321 9.70667 142.195 9.19333 141.941 8.86C141.701 8.51333 141.315 8.34 140.781 8.34C140.421 8.34 140.101 8.42 139.821 8.58C139.555 8.74 139.341 8.97333 139.181 9.28C139.035 9.58667 138.961 9.96 138.961 10.4V16H136.801V10.4C136.801 9.70667 136.675 9.19333 136.421 8.86C136.181 8.51333 135.795 8.34 135.261 8.34C134.888 8.34 134.561 8.42 134.281 8.58C134.015 8.74 133.808 8.97333 133.661 9.28C133.515 9.58667 133.441 9.96 133.441 10.4V16H131.321V6.8H133.441V8.14C133.708 7.63333 134.055 7.25333 134.481 7C134.921 6.73333 135.435 6.6 136.021 6.6C136.701 6.6 137.261 6.74 137.701 7.02C138.155 7.3 138.481 7.70667 138.681 8.24C139.001 7.70667 139.401 7.3 139.881 7.02C140.375 6.74 140.935 6.6 141.561 6.6C142.215 6.6 142.755 6.74 143.181 7.02C143.621 7.28667 143.948 7.68667 144.161 8.22C144.375 8.75333 144.481 9.4 144.481 10.16ZM146.539 11.4C146.539 10.4533 146.753 9.62 147.179 8.9C147.619 8.18 148.213 7.62 148.959 7.22C149.706 6.80667 150.553 6.6 151.499 6.6C152.446 6.6 153.286 6.80667 154.019 7.22C154.766 7.62 155.359 8.18 155.799 8.9C156.239 9.62 156.459 10.4533 156.459 11.4C156.459 12.3333 156.239 13.1667 155.799 13.9C155.359 14.62 154.766 15.1867 154.019 15.6C153.286 16 152.446 16.2 151.499 16.2C150.553 16.2 149.706 16 148.959 15.6C148.213 15.1867 147.619 14.62 147.179 13.9C146.753 13.1667 146.539 12.3333 146.539 11.4ZM148.759 11.4C148.759 11.9733 148.879 12.48 149.119 12.92C149.359 13.3467 149.686 13.6867 150.099 13.94C150.513 14.18 150.979 14.3 151.499 14.3C152.006 14.3 152.466 14.18 152.879 13.94C153.306 13.6867 153.639 13.3467 153.879 12.92C154.119 12.48 154.239 11.9733 154.239 11.4C154.239 10.8267 154.119 10.32 153.879 9.88C153.639 9.44 153.306 9.1 152.879 8.86C152.466 8.62 152.006 8.5 151.499 8.5C150.979 8.5 150.513 8.62 150.099 8.86C149.686 9.1 149.359 9.44 149.119 9.88C148.879 10.32 148.759 10.8267 148.759 11.4Z" fill="#EDEDEF"/>
</svg>
