<svg width="29" height="29" viewBox="0 0 29 29" fill="none" xmlns="http://www.w3.org/2000/svg">
<path d="M26.3637 2.63647H2.63647V26.3637H26.3637V2.63647Z" fill="#020D18"/>
<path d="M25.0454 1.31812H3.95448C2.50448 1.31812 1.31812 2.50448 1.31812 3.95448V25.0454C1.31812 26.4954 2.50448 27.6818 3.95448 27.6818H25.0454C26.4954 27.6818 27.6818 26.4954 27.6818 25.0454V3.95448C27.6818 2.50448 26.4954 1.31812 25.0454 1.31812ZM9.35902 22.409H5.27266V11.0727H9.35902V22.409ZM7.24993 9.75448C6.06357 9.75448 5.27266 8.96357 5.27266 7.90902C5.27266 6.85448 6.06357 6.06357 7.38175 6.06357C8.56811 6.06357 9.35902 6.85448 9.35902 7.90902C9.35902 8.96357 8.56811 9.75448 7.24993 9.75448ZM23.7272 22.409H19.6408V16.2136C19.6408 14.4999 18.5863 14.1045 18.1908 14.1045C17.7954 14.1045 16.4772 14.3681 16.4772 16.2136C16.4772 16.4772 16.4772 22.409 16.4772 22.409H12.3908V11.0727H16.4772V12.6545C17.0045 11.7318 18.059 11.0727 20.0363 11.0727C22.0136 11.0727 23.5954 12.6545 23.5954 16.2136L23.7272 22.409Z" fill="#EEEDF2"/>
</svg>
