<svg width="238" height="66" viewBox="0 0 238 66" fill="none" xmlns="http://www.w3.org/2000/svg">
<g clip-path="url(#clip0_80_206)">
<rect width="238" height="66" rx="33" fill="#2C7AA6"/>
<path d="M63.2353 24.2H66.0673V38.456H72.7393V41H63.2353V24.2ZM74.478 25.568C74.478 25.12 74.638 24.744 74.958 24.44C75.294 24.136 75.678 23.984 76.11 23.984C76.574 23.984 76.958 24.136 77.262 24.44C77.582 24.744 77.742 25.12 77.742 25.568C77.742 26 77.582 26.376 77.262 26.696C76.958 27 76.574 27.152 76.11 27.152C75.678 27.152 75.294 27 74.958 26.696C74.638 26.376 74.478 26 74.478 25.568ZM74.838 29.96H77.382V41H74.838V29.96ZM88.053 34.28C88.053 33.464 87.885 32.848 87.549 32.432C87.213 32.016 86.693 31.808 85.989 31.808C85.509 31.808 85.085 31.912 84.717 32.12C84.349 32.312 84.061 32.6 83.853 32.984C83.645 33.352 83.541 33.784 83.541 34.28V41H80.949V29.96H83.541V31.664C83.893 31.008 84.341 30.52 84.885 30.2C85.445 29.88 86.109 29.72 86.877 29.72C88.125 29.72 89.077 30.104 89.733 30.872C90.389 31.624 90.717 32.664 90.717 33.992V41H88.053V34.28ZM93.9311 22.28H96.4751V41H93.9311V22.28ZM100.531 29.96H103.699L98.9471 34.52L104.179 41H101.035L95.7551 34.52L100.531 29.96ZM110.358 41.24C109.238 41.24 108.246 41 107.382 40.52C106.534 40.04 105.878 39.368 105.414 38.504C104.95 37.64 104.718 36.632 104.718 35.48C104.718 34.312 104.95 33.296 105.414 32.432C105.894 31.568 106.566 30.904 107.43 30.44C108.294 29.96 109.31 29.72 110.478 29.72C111.646 29.72 112.638 29.944 113.454 30.392C114.27 30.84 114.894 31.488 115.326 32.336C115.774 33.168 115.998 34.176 115.998 35.36C115.998 35.488 115.99 35.624 115.974 35.768C115.974 35.912 115.966 36.016 115.95 36.08H106.254V34.304H113.742L112.95 35.408C112.998 35.312 113.046 35.184 113.094 35.024C113.158 34.848 113.19 34.704 113.19 34.592C113.19 34 113.07 33.488 112.83 33.056C112.606 32.624 112.286 32.288 111.87 32.048C111.47 31.808 110.998 31.688 110.454 31.688C109.798 31.688 109.238 31.832 108.774 32.12C108.31 32.408 107.958 32.824 107.718 33.368C107.478 33.912 107.35 34.584 107.334 35.384C107.334 36.184 107.454 36.864 107.694 37.424C107.934 37.968 108.286 38.384 108.75 38.672C109.23 38.96 109.806 39.104 110.478 39.104C111.182 39.104 111.798 38.96 112.326 38.672C112.854 38.384 113.294 37.944 113.646 37.352L115.878 38.264C115.302 39.256 114.558 40 113.646 40.496C112.734 40.992 111.638 41.24 110.358 41.24ZM126.776 22.28H129.392V41H126.776V22.28ZM117.632 35.48C117.632 34.264 117.88 33.232 118.376 32.384C118.872 31.52 119.528 30.864 120.344 30.416C121.176 29.952 122.064 29.72 123.008 29.72C123.936 29.72 124.744 29.952 125.432 30.416C126.136 30.88 126.688 31.544 127.088 32.408C127.504 33.256 127.712 34.28 127.712 35.48C127.712 36.664 127.504 37.688 127.088 38.552C126.688 39.416 126.136 40.08 125.432 40.544C124.744 41.008 123.936 41.24 123.008 41.24C122.064 41.24 121.176 41.016 120.344 40.568C119.528 40.104 118.872 39.44 118.376 38.576C117.88 37.712 117.632 36.68 117.632 35.48ZM120.32 35.48C120.32 36.216 120.472 36.848 120.776 37.376C121.08 37.904 121.48 38.304 121.976 38.576C122.488 38.848 123.04 38.984 123.632 38.984C124.128 38.984 124.616 38.848 125.096 38.576C125.592 38.304 125.992 37.912 126.296 37.4C126.616 36.872 126.776 36.232 126.776 35.48C126.776 34.728 126.616 34.096 126.296 33.584C125.992 33.056 125.592 32.656 125.096 32.384C124.616 32.112 124.128 31.976 123.632 31.976C123.04 31.976 122.488 32.112 121.976 32.384C121.48 32.656 121.08 33.056 120.776 33.584C120.472 34.112 120.32 34.744 120.32 35.48ZM132.821 24.2H135.677V41H132.821V24.2ZM146.319 34.28C146.319 33.464 146.151 32.848 145.815 32.432C145.479 32.016 144.959 31.808 144.255 31.808C143.775 31.808 143.351 31.912 142.983 32.12C142.615 32.312 142.327 32.6 142.119 32.984C141.911 33.352 141.807 33.784 141.807 34.28V41H139.215V29.96H141.807V31.664C142.159 31.008 142.607 30.52 143.151 30.2C143.711 29.88 144.375 29.72 145.143 29.72C146.391 29.72 147.343 30.104 147.999 30.872C148.655 31.624 148.983 32.664 148.983 33.992V41H146.319V34.28Z" fill="white"/>
<path d="M157.766 33.0001H176.434M176.434 33.0001L168.656 25.2219M176.434 33.0001L168.656 40.7783" stroke="white" stroke-width="2.5" stroke-linecap="round" stroke-linejoin="round"/>
</g>
<defs>
<clipPath id="clip0_80_206">
<rect width="238" height="66" rx="33" fill="white"/>
</clipPath>
</defs>
</svg>
