<svg width="238" height="66" viewBox="0 0 238 66" fill="none" xmlns="http://www.w3.org/2000/svg">
<g clip-path="url(#clip0_1_263)">
<rect width="238" height="66" rx="33" fill="url(#paint0_linear_1_263)"/>
<path d="M62.1352 24.2H64.9672V38.456H71.6392V41H62.1352V24.2ZM73.3779 25.568C73.3779 25.12 73.5379 24.744 73.8579 24.44C74.1939 24.136 74.5779 23.984 75.0099 23.984C75.4739 23.984 75.8579 24.136 76.1619 24.44C76.4819 24.744 76.6419 25.12 76.6419 25.568C76.6419 26 76.4819 26.376 76.1619 26.696C75.8579 27 75.4739 27.152 75.0099 27.152C74.5779 27.152 74.1939 27 73.8579 26.696C73.5379 26.376 73.3779 26 73.3779 25.568ZM73.7379 29.96H76.2819V41H73.7379V29.96ZM86.9529 34.28C86.9529 33.464 86.7849 32.848 86.4489 32.432C86.1129 32.016 85.5929 31.808 84.8889 31.808C84.4089 31.808 83.9849 31.912 83.6169 32.12C83.2489 32.312 82.9609 32.6 82.7529 32.984C82.5449 33.352 82.4409 33.784 82.4409 34.28V41H79.8489V29.96H82.4409V31.664C82.7929 31.008 83.2409 30.52 83.7849 30.2C84.3449 29.88 85.0089 29.72 85.7769 29.72C87.0249 29.72 87.9769 30.104 88.6329 30.872C89.2889 31.624 89.6169 32.664 89.6169 33.992V41H86.9529V34.28ZM92.831 22.28H95.375V41H92.831V22.28ZM99.431 29.96H102.599L97.847 34.52L103.079 41H99.935L94.655 34.52L99.431 29.96ZM109.258 41.24C108.138 41.24 107.146 41 106.282 40.52C105.434 40.04 104.778 39.368 104.314 38.504C103.85 37.64 103.618 36.632 103.618 35.48C103.618 34.312 103.85 33.296 104.314 32.432C104.794 31.568 105.466 30.904 106.33 30.44C107.194 29.96 108.21 29.72 109.378 29.72C110.546 29.72 111.538 29.944 112.354 30.392C113.17 30.84 113.794 31.488 114.226 32.336C114.674 33.168 114.898 34.176 114.898 35.36C114.898 35.488 114.89 35.624 114.874 35.768C114.874 35.912 114.866 36.016 114.85 36.08H105.154V34.304H112.642L111.85 35.408C111.898 35.312 111.946 35.184 111.994 35.024C112.058 34.848 112.09 34.704 112.09 34.592C112.09 34 111.97 33.488 111.73 33.056C111.506 32.624 111.186 32.288 110.77 32.048C110.37 31.808 109.898 31.688 109.354 31.688C108.698 31.688 108.138 31.832 107.674 32.12C107.21 32.408 106.858 32.824 106.618 33.368C106.378 33.912 106.25 34.584 106.234 35.384C106.234 36.184 106.354 36.864 106.594 37.424C106.834 37.968 107.186 38.384 107.65 38.672C108.13 38.96 108.706 39.104 109.378 39.104C110.082 39.104 110.698 38.96 111.226 38.672C111.754 38.384 112.194 37.944 112.546 37.352L114.778 38.264C114.202 39.256 113.458 40 112.546 40.496C111.634 40.992 110.538 41.24 109.258 41.24ZM125.676 22.28H128.292V41H125.676V22.28ZM116.532 35.48C116.532 34.264 116.78 33.232 117.276 32.384C117.772 31.52 118.428 30.864 119.244 30.416C120.076 29.952 120.964 29.72 121.908 29.72C122.836 29.72 123.644 29.952 124.332 30.416C125.036 30.88 125.588 31.544 125.988 32.408C126.404 33.256 126.612 34.28 126.612 35.48C126.612 36.664 126.404 37.688 125.988 38.552C125.588 39.416 125.036 40.08 124.332 40.544C123.644 41.008 122.836 41.24 121.908 41.24C120.964 41.24 120.076 41.016 119.244 40.568C118.428 40.104 117.772 39.44 117.276 38.576C116.78 37.712 116.532 36.68 116.532 35.48ZM119.22 35.48C119.22 36.216 119.372 36.848 119.676 37.376C119.98 37.904 120.38 38.304 120.876 38.576C121.388 38.848 121.94 38.984 122.532 38.984C123.028 38.984 123.516 38.848 123.996 38.576C124.492 38.304 124.892 37.912 125.196 37.4C125.516 36.872 125.676 36.232 125.676 35.48C125.676 34.728 125.516 34.096 125.196 33.584C124.892 33.056 124.492 32.656 123.996 32.384C123.516 32.112 123.028 31.976 122.532 31.976C121.94 31.976 121.388 32.112 120.876 32.384C120.38 32.656 119.98 33.056 119.676 33.584C119.372 34.112 119.22 34.744 119.22 35.48ZM131.721 24.2H134.577V41H131.721V24.2ZM145.218 34.28C145.218 33.464 145.05 32.848 144.714 32.432C144.378 32.016 143.858 31.808 143.154 31.808C142.674 31.808 142.25 31.912 141.882 32.12C141.514 32.312 141.226 32.6 141.018 32.984C140.81 33.352 140.706 33.784 140.706 34.28V41H138.114V29.96H140.706V31.664C141.058 31.008 141.506 30.52 142.05 30.2C142.61 29.88 143.274 29.72 144.042 29.72C145.29 29.72 146.242 30.104 146.898 30.872C147.554 31.624 147.882 32.664 147.882 33.992V41H145.218V34.28Z" fill="white"/>
<path d="M159.4 39.6001L172.6 26.4001M172.6 26.4001L161.6 26.4001M172.6 26.4001L172.6 37.4001" stroke="white" stroke-width="2.5" stroke-linecap="round" stroke-linejoin="round"/>
</g>
<defs>
<linearGradient id="paint0_linear_1_263" x1="119" y1="-18.5625" x2="178.332" y2="118.873" gradientUnits="userSpaceOnUse">
<stop stop-color="#106798"/>
<stop offset="1" stop-color="#3CABE9"/>
</linearGradient>
<clipPath id="clip0_1_263">
<rect width="238" height="66" rx="33" fill="white"/>
</clipPath>
</defs>
</svg>
