<svg width="238" height="66" viewBox="0 0 238 66" fill="none" xmlns="http://www.w3.org/2000/svg">
<g clip-path="url(#clip0_1_254)">
<rect width="238" height="66" rx="33" fill="#106899"/>
<path d="M61.5822 36.008L66.5262 24.2H69.7902L61.5822 41.936L53.3742 24.2H56.6382L61.5822 36.008ZM71.4326 25.568C71.4326 25.12 71.5926 24.744 71.9126 24.44C72.2486 24.136 72.6326 23.984 73.0646 23.984C73.5286 23.984 73.9126 24.136 74.2166 24.44C74.5366 24.744 74.6966 25.12 74.6966 25.568C74.6966 26 74.5366 26.376 74.2166 26.696C73.9126 27 73.5286 27.152 73.0646 27.152C72.6326 27.152 72.2486 27 71.9126 26.696C71.5926 26.376 71.4326 26 71.4326 25.568ZM71.7926 29.96H74.3366V41H71.7926V29.96ZM78.4076 37.376C78.7596 37.76 79.1116 38.096 79.4636 38.384C79.8316 38.656 80.1996 38.864 80.5676 39.008C80.9356 39.136 81.3036 39.2 81.6716 39.2C82.1356 39.2 82.4956 39.096 82.7516 38.888C83.0236 38.68 83.1596 38.392 83.1596 38.024C83.1596 37.704 83.0556 37.432 82.8476 37.208C82.6396 36.968 82.3516 36.768 81.9836 36.608C81.6156 36.432 81.1836 36.256 80.6876 36.08C80.1916 35.888 79.6956 35.664 79.1996 35.408C78.7196 35.136 78.3196 34.784 77.9996 34.352C77.6956 33.92 77.5436 33.376 77.5436 32.72C77.5436 32.048 77.7116 31.488 78.0476 31.04C78.3996 30.592 78.8636 30.264 79.4396 30.056C80.0316 29.832 80.6636 29.72 81.3356 29.72C81.9436 29.72 82.5116 29.808 83.0396 29.984C83.5836 30.16 84.0716 30.392 84.5036 30.68C84.9356 30.968 85.3036 31.296 85.6076 31.664L84.1676 33.2C83.7996 32.768 83.3596 32.416 82.8476 32.144C82.3356 31.872 81.8076 31.736 81.2636 31.736C80.8956 31.736 80.5916 31.816 80.3516 31.976C80.1116 32.136 79.9916 32.368 79.9916 32.672C79.9916 32.928 80.0956 33.16 80.3036 33.368C80.5276 33.56 80.8156 33.736 81.1676 33.896C81.5356 34.056 81.9436 34.224 82.3916 34.4C82.9996 34.64 83.5596 34.904 84.0716 35.192C84.5836 35.48 84.9916 35.832 85.2956 36.248C85.6156 36.664 85.7756 37.208 85.7756 37.88C85.7756 38.92 85.4156 39.76 84.6956 40.4C83.9916 41.024 83.0316 41.336 81.8156 41.336C81.0636 41.336 80.3676 41.224 79.7276 41C79.1036 40.76 78.5516 40.456 78.0716 40.088C77.6076 39.704 77.2156 39.304 76.8956 38.888L78.4076 37.376ZM90.7394 36.68C90.7394 37.464 90.9074 38.072 91.2434 38.504C91.5794 38.936 92.0914 39.152 92.7794 39.152C93.2754 39.152 93.7074 39.056 94.0754 38.864C94.4434 38.656 94.7314 38.368 94.9394 38C95.1474 37.616 95.2514 37.176 95.2514 36.68V29.96H97.8434V41H95.2514V39.296C94.8994 39.936 94.4434 40.424 93.8834 40.76C93.3394 41.08 92.6834 41.24 91.9154 41.24C90.6834 41.24 89.7314 40.856 89.0594 40.088C88.4034 39.32 88.0754 38.28 88.0754 36.968V29.96H90.7394V36.68ZM102.786 37.568C102.786 37.936 102.874 38.256 103.05 38.528C103.226 38.784 103.466 38.976 103.77 39.104C104.09 39.232 104.45 39.296 104.85 39.296C105.362 39.296 105.826 39.192 106.242 38.984C106.674 38.776 107.018 38.472 107.274 38.072C107.546 37.656 107.682 37.176 107.682 36.632L108.066 38.072C108.066 38.776 107.858 39.368 107.442 39.848C107.042 40.312 106.53 40.664 105.906 40.904C105.298 41.128 104.674 41.24 104.034 41.24C103.346 41.24 102.706 41.104 102.114 40.832C101.522 40.56 101.05 40.16 100.698 39.632C100.346 39.104 100.17 38.464 100.17 37.712C100.17 36.64 100.546 35.792 101.298 35.168C102.05 34.528 103.114 34.208 104.49 34.208C105.226 34.208 105.858 34.288 106.386 34.448C106.93 34.608 107.378 34.8 107.73 35.024C108.082 35.232 108.33 35.424 108.474 35.6V36.92C107.978 36.568 107.45 36.312 106.89 36.152C106.33 35.992 105.738 35.912 105.114 35.912C104.57 35.912 104.13 35.984 103.794 36.128C103.458 36.256 103.202 36.44 103.026 36.68C102.866 36.92 102.786 37.216 102.786 37.568ZM101.97 32.84L100.914 31.016C101.41 30.712 102.05 30.416 102.834 30.128C103.634 29.84 104.546 29.696 105.57 29.696C106.482 29.696 107.282 29.832 107.97 30.104C108.674 30.376 109.226 30.768 109.626 31.28C110.026 31.776 110.226 32.392 110.226 33.128V41H107.682V33.632C107.682 33.28 107.618 32.992 107.49 32.768C107.378 32.544 107.218 32.36 107.01 32.216C106.802 32.072 106.554 31.968 106.266 31.904C105.978 31.84 105.666 31.808 105.33 31.808C104.818 31.808 104.33 31.872 103.866 32C103.418 32.112 103.026 32.256 102.69 32.432C102.37 32.592 102.13 32.728 101.97 32.84ZM113.247 22.28H115.839V41H113.247V22.28ZM119.058 25.568C119.058 25.12 119.218 24.744 119.538 24.44C119.874 24.136 120.258 23.984 120.69 23.984C121.154 23.984 121.538 24.136 121.842 24.44C122.162 24.744 122.322 25.12 122.322 25.568C122.322 26 122.162 26.376 121.842 26.696C121.538 27 121.154 27.152 120.69 27.152C120.258 27.152 119.874 27 119.538 26.696C119.218 26.376 119.058 26 119.058 25.568ZM119.418 29.96H121.962V41H119.418V29.96ZM130.665 32.36H125.073V29.96H135.153L128.841 38.6H134.553V41H124.233L130.665 32.36ZM138.809 37.568C138.809 37.936 138.897 38.256 139.073 38.528C139.249 38.784 139.489 38.976 139.793 39.104C140.113 39.232 140.473 39.296 140.873 39.296C141.385 39.296 141.849 39.192 142.265 38.984C142.697 38.776 143.041 38.472 143.297 38.072C143.569 37.656 143.705 37.176 143.705 36.632L144.089 38.072C144.089 38.776 143.881 39.368 143.465 39.848C143.065 40.312 142.553 40.664 141.929 40.904C141.321 41.128 140.697 41.24 140.057 41.24C139.369 41.24 138.729 41.104 138.137 40.832C137.545 40.56 137.073 40.16 136.721 39.632C136.369 39.104 136.193 38.464 136.193 37.712C136.193 36.64 136.569 35.792 137.321 35.168C138.073 34.528 139.137 34.208 140.513 34.208C141.249 34.208 141.881 34.288 142.409 34.448C142.953 34.608 143.401 34.8 143.753 35.024C144.105 35.232 144.353 35.424 144.497 35.6V36.92C144.001 36.568 143.473 36.312 142.913 36.152C142.353 35.992 141.761 35.912 141.137 35.912C140.593 35.912 140.153 35.984 139.817 36.128C139.481 36.256 139.225 36.44 139.049 36.68C138.889 36.92 138.809 37.216 138.809 37.568ZM137.993 32.84L136.937 31.016C137.433 30.712 138.073 30.416 138.857 30.128C139.657 29.84 140.569 29.696 141.593 29.696C142.505 29.696 143.305 29.832 143.993 30.104C144.697 30.376 145.249 30.768 145.649 31.28C146.049 31.776 146.249 32.392 146.249 33.128V41H143.705V33.632C143.705 33.28 143.641 32.992 143.513 32.768C143.401 32.544 143.241 32.36 143.033 32.216C142.825 32.072 142.577 31.968 142.289 31.904C142.001 31.84 141.689 31.808 141.353 31.808C140.841 31.808 140.353 31.872 139.889 32C139.441 32.112 139.049 32.256 138.713 32.432C138.393 32.592 138.153 32.728 137.993 32.84ZM151.839 29.96V41H149.271V29.96H151.839ZM155.127 32.72C154.887 32.528 154.663 32.384 154.455 32.288C154.247 32.192 153.983 32.144 153.663 32.144C153.231 32.144 152.879 32.256 152.607 32.48C152.335 32.704 152.135 33.016 152.007 33.416C151.895 33.8 151.839 34.256 151.839 34.784L150.975 34.28C150.975 33.4 151.135 32.624 151.455 31.952C151.791 31.264 152.215 30.72 152.727 30.32C153.255 29.92 153.799 29.72 154.359 29.72C154.759 29.72 155.135 29.784 155.487 29.912C155.839 30.024 156.135 30.232 156.375 30.536L155.127 32.72Z" fill="white"/>
<path d="M163.666 32.9999H182.334M182.334 32.9999L174.555 25.2217M182.334 32.9999L174.555 40.778" stroke="white" stroke-width="2.5" stroke-linecap="round" stroke-linejoin="round"/>
</g>
<defs>
<clipPath id="clip0_1_254">
<rect width="238" height="66" rx="33" fill="white"/>
</clipPath>
</defs>
</svg>
